<svg width="164" height="164" viewBox="0 0 164 164" fill="none" xmlns="http://www.w3.org/2000/svg">
<rect width="164" height="164" rx="13.3907" fill="#D6E4FF"/>
<path d="M48.5638 20.377L15.1075 73.3591C14.1542 74.8688 15.1563 76.8496 16.9373 76.976L27.3926 77.718C28.3621 77.7868 29.2748 77.2546 29.6924 76.377L50.4895 32.6742C51.2201 31.1388 53.2598 30.8065 54.4401 32.0305L64.6021 42.5689C65.1635 43.1511 65.9775 43.4165 66.7741 43.2771L121.523 33.6976C122.671 33.4967 123.8 34.1378 124.217 35.2265L140.082 76.7378C140.346 77.4294 140.911 77.9631 141.616 78.188L148.886 80.5066C150.142 80.9075 151.305 79.678 150.835 78.4455L130.217 24.3798C129.801 23.2887 128.669 22.6468 127.519 22.8498L69.1781 33.152C68.4622 33.2784 67.7271 33.0782 67.1742 32.6061L52.2029 19.8253C51.075 18.8624 49.3556 19.1231 48.5638 20.377Z" fill="url(#paint0_linear_2601_20)"/>
<path fill-rule="evenodd" clip-rule="evenodd" d="M99.6691 108.609C101.314 108.609 102.803 109.582 103.464 111.088L115.096 137.582C115.757 139.088 117.246 140.06 118.891 140.06H120.85C123.868 140.06 125.874 136.939 124.621 134.194L87.0868 51.9976C85.3314 48.0037 79.6552 47.9979 77.9132 51.9976L40.3793 134.194C39.1259 136.939 41.132 140.06 44.1495 140.06H46.4581C48.0966 140.06 49.5813 139.095 50.2462 137.598L62.0241 111.072C62.689 109.575 64.1737 108.609 65.8122 108.609H99.6691ZM85.1753 67.4164C84.5029 65.6227 81.9655 65.6233 81.294 67.4174L71.8702 92.5949C71.3632 93.9495 72.3647 95.3937 73.811 95.3937H83.2333H92.6733C94.1201 95.3937 95.1216 93.9487 94.6137 92.5939L89.4483 78.8149L85.1753 67.4164Z" fill="#061C47"/>
<defs>
<linearGradient id="paint0_linear_2601_20" x1="29.6952" y1="28.6363" x2="162.921" y2="69.6565" gradientUnits="userSpaceOnUse">
<stop stop-color="#074BC5"/>
<stop offset="0.557292" stop-color="#080EA2"/>
<stop offset="1" stop-color="#3908A2"/>
</linearGradient>
</defs>
</svg>
